<svg xmlns="http://www.w3.org/2000/svg" width="30" height="30" viewBox="0 0 30 30"><path className="a" d="M326.168,430.5a15,15,0,1,0,15,15A15,15,0,0,0,326.168,430.5Zm-4.079,25.555a1.851,1.851,0,0,1,0-3.7h0a1.851,1.851,0,0,1,0,3.7Zm9.257,0a1.851,1.851,0,1,1,0-3.7h0a1.851,1.851,0,0,1,0,3.7Zm3.589-15.292-3.307,6.009a1.843,1.843,0,0,1-1.62.953h-6.9l-.833,1.509-.028.111v0a.228.228,0,0,0,.231.227H333.2v1.851H322.089a1.856,1.856,0,0,1-1.851-1.851,1.787,1.787,0,0,1,.231-.889l1.25-2.268-3.333-7.026h-1.851V437.54h3.027l.873,1.851H334.12a.928.928,0,0,1,.926.926A.9.9,0,0,1,334.935,440.761Z" transform="translate(-311.168 -430.498)"/></svg>
