<svg xmlns="http://www.w3.org/2000/svg" width="113.428" height="66.95" viewBox="0 0 113.428 66.95">
  <g id="Grupo_24528" data-name="Grupo 24528" transform="translate(-698.723 -376.216)">
    <g id="Grupo_24502" data-name="Grupo 24502">
      <g id="groselha" style="isolation: isolate">
        <text id="groselha-2" data-name="groselha" transform="translate(723.151 438.166)" fill="#fff" font-size="23" font-family="ArialMT, Arial" style="isolation: isolate"><tspan x="0" y="0">groselha</tspan></text>
      </g>
      <g id="Grupo_24499" data-name="Grupo 24499">
        <path id="Caminho_29304" data-name="Caminho 29304" d="M712.443,406.951a9.913,9.913,0,0,1-4.742,2.5,3.059,3.059,0,0,1,.478.662c.147.368.515,1.1,1.066,2.242s1.176,2.426,1.838,3.823c.7,1.4,1.323,2.683,1.875,3.823s.919,1.874,1.066,2.2a2.712,2.712,0,0,1,.11,2.536,1.715,1.715,0,0,1-1.728.808,2.723,2.723,0,0,1-1.911-1.617c-.147-.368-.441-.919-.846-1.728-.735-1.581-1.985-4.117-3.675-7.572v7.5a2.987,2.987,0,0,1-1.654,3.014,3.9,3.9,0,0,1-3.382.073,3.033,3.033,0,0,1-1.691-3.087V397.139a3.287,3.287,0,0,1,1.029-2.683,3.534,3.534,0,0,1,2.352-.882h1.213a19.413,19.413,0,0,1,2.977.257,12.867,12.867,0,0,1,3.492.992,7.35,7.35,0,0,1,2.977,2.206,5.88,5.88,0,0,1,1.213,3.9C714.5,403.68,713.8,405.665,712.443,406.951Zm-3.124-2.683a3.3,3.3,0,0,0,1.507-3.014,2.8,2.8,0,0,0-1.47-2.72,8.239,8.239,0,0,0-3.382-.918v8.012a8.677,8.677,0,0,0,3.345-1.36Z" fill="#fff"/>
        <path id="Caminho_29305" data-name="Caminho 29305" d="M734.937,401.585a25.831,25.831,0,0,1-.037,15.989c-1.727,5.33-5.109,8.013-10.144,8.013-4.19,0-6.873-2.683-8.086-8.013A32.721,32.721,0,0,1,717,401.585c1.433-5.329,4.006-8.013,7.756-8.013C729.861,393.572,733.246,396.255,734.937,401.585ZM727.586,418.6a40.47,40.47,0,0,0,.992-8.931,38.317,38.317,0,0,0-.882-8.895c-.588-2.61-1.507-3.933-2.793-3.933s-2.279,1.323-2.977,3.933a34.149,34.149,0,0,0-1.14,8.895,33.393,33.393,0,0,0,.919,8.931c.662,2.61,1.727,3.933,3.2,3.933,1.174,0,2.056-1.326,2.681-3.934Z" fill="#fff"/>
        <path id="Caminho_29306" data-name="Caminho 29306" d="M751.035,416.875a1.988,1.988,0,0,1,1.654-.073,1.955,1.955,0,0,1,1.213,1.25,6.713,6.713,0,0,1,.11,2.793,5.4,5.4,0,0,1-1.764,3.235c-.992.992-2.72,1.507-5.146,1.507-4.447,0-7.351-2.683-8.674-8.013a27.628,27.628,0,0,1,.7-15.989c1.8-5.329,5.183-8.013,10.145-8.013,1.543,0,2.573.4,3.124,1.25a4.651,4.651,0,0,1,.845,2.683,9.689,9.689,0,0,1-.184,2.462,1.1,1.1,0,0,1-.882.809,1.434,1.434,0,0,1-1.176-.147,1.008,1.008,0,0,1-.367-1.176,2.207,2.207,0,0,0-.147-1.948,1.717,1.717,0,0,0-1.4-.588q-3.033,0-4.3,5.955a40.67,40.67,0,0,0-.772,11.908c.331,3.97,1.286,6.359,2.867,7.131a2.058,2.058,0,0,0,2.5-.7,5.891,5.891,0,0,0,.735-2.867A1.6,1.6,0,0,1,751.035,416.875Z" fill="#fff"/>
        <path id="Caminho_29307" data-name="Caminho 29307" d="M769.522,393.572a1.673,1.673,0,0,1,1.581,1.066,2.55,2.55,0,0,1-.4,2.463c-.184.331-.772,1.139-1.654,2.426s-1.875,2.757-3.014,4.374c-.662.992-1.323,1.911-1.911,2.83a.117.117,0,0,0,.037.074c.037.037.037.11.073.147q3.142,7.554,5.072,12.791.772,1.984.992,2.536a2.625,2.625,0,0,1-.037,2.536,1.666,1.666,0,0,1-1.728.735,2.628,2.628,0,0,1-1.838-1.727l-1.1-2.757c-.588-1.434-1.213-3.087-1.948-4.925-.7-1.8-1.323-3.418-1.911-4.852v10.843a2.958,2.958,0,0,1-1.691,3.014,3.822,3.822,0,0,1-3.345.073,3.034,3.034,0,0,1-1.691-3.087V397.138a3.107,3.107,0,0,1,1.691-3.161,3.7,3.7,0,0,1,3.345.037,3.084,3.084,0,0,1,1.691,3.124v5.991c1.654-2.389,3.014-4.337,4.117-5.917.845-1.139,1.36-1.912,1.581-2.242A2.644,2.644,0,0,1,769.522,393.572Z" fill="#fff"/>
      </g>
      <g id="com" style="isolation: isolate">
        <text id="com-2" data-name="com" transform="translate(698.723 437.004)" fill="#fff" font-size="12.216" font-family="Roboto-Regular, Roboto" style="isolation: isolate"><tspan x="0" y="0">com</tspan></text>
      </g>
      <g id="Grupo_24501" data-name="Grupo 24501">
        <g id="Grupo_24500" data-name="Grupo 24500">
          <path id="Caminho_29308" data-name="Caminho 29308" d="M782.041,408.4l-7.864,1.037L785.9,392.171a13.976,13.976,0,0,0-8.093,26.671Z" fill="#c5002e"/>
          <path id="Caminho_29309" data-name="Caminho 29309" d="M786.538,392.329l-4.224,11.325,9.229-1.474-12.925,16.949a14.01,14.01,0,0,0,9.7-.452A8.848,8.848,0,0,1,796.74,407.4a13.95,13.95,0,0,0-10.2-15.071Z" fill="#c5002e"/>
        </g>
        <circle id="Elipse_355" data-name="Elipse 355" cx="13.975" cy="13.975" r="13.975" transform="translate(768.885 391.836)" fill="none"/>
        <circle id="Elipse_356" data-name="Elipse 356" cx="6.822" cy="6.822" r="6.822" transform="translate(790.013 409.428)" fill="#c5002e"/>
        <circle id="Elipse_357" data-name="Elipse 357" cx="4.425" cy="4.425" r="4.425" transform="translate(798.339 399.946)" fill="#c5002e"/>
        <path id="Caminho_29310" data-name="Caminho 29310" d="M801.75,396.951s-1.4-8.4,7.754-10.231C809.5,386.722,811.657,395.228,801.75,396.951Z" fill="#9fbd3a"/>
        <path id="Caminho_29311" data-name="Caminho 29311" d="M795.974,397.225s-9.571-10.162,1.225-21.009C797.2,376.218,807.9,385.838,795.974,397.225Z" fill="#9fbd3a"/>
      </g>
    </g>
  </g>
</svg>
